HIERARCHY
ROOT Hips
{
 OFFSET 0.000000 0.000000 0.000000
 CHANNELS 6 Xposition Yposition Zposition Yrotation Xrotation Zrotation
 JOINT Chest
 {
  OFFSET 0.000000 9.585900 0.002600
  CHANNELS 3 Yrotation Xrotation Zrotation
  JOINT Chest2
  {
   OFFSET 0.000000 9.601200 -0.005300
   CHANNELS 3 Yrotation Xrotation Zrotation
   JOINT Chest3
   {
    OFFSET 0.000000 9.561800 0.000000
    CHANNELS 3 Yrotation Xrotation Zrotation
    JOINT Chest4
    {
     OFFSET 0.000000 9.552100 0.000000
     CHANNELS 3 Yrotation Xrotation Zrotation
     JOINT Neck
     {
      OFFSET 0.000000 14.453000 0.000000
      CHANNELS 3 Yrotation Xrotation Zrotation
      JOINT Head
      {
       OFFSET 0.000000 8.936500 -0.011300
       CHANNELS 3 Yrotation Xrotation Zrotation
       End Site
       {
        OFFSET 0.000000 17.073600 -0.006000
       }
      }
     }
     JOINT RightCollar
     {
      OFFSET -2.921100 9.558500 0.000000
      CHANNELS 3 Yrotation Xrotation Zrotation
      JOINT RightShoulder
      {
       OFFSET -13.519700 0.000000 0.000000
       CHANNELS 3 Yrotation Xrotation Zrotation
       JOINT RightElbow
       {
        OFFSET 0.000000 -29.696600 0.000000
        CHANNELS 3 Yrotation Xrotation Zrotation
        JOINT RightWrist
        {
         OFFSET 0.000000 -24.004700 0.000000
         CHANNELS 3 Yrotation Xrotation Zrotation
         End Site
         {
          OFFSET 0.000000 -17.728500 0.000000
         }
        }
       }
      }
     }
     JOINT LeftCollar
     {
      OFFSET 2.921100 9.558500 0.000000
      CHANNELS 3 Yrotation Xrotation Zrotation
      JOINT LeftShoulder
      {
       OFFSET 13.519700 0.000000 0.000000
       CHANNELS 3 Yrotation Xrotation Zrotation
       JOINT LeftElbow
       {
        OFFSET 0.000000 -29.696600 0.000000
        CHANNELS 3 Yrotation Xrotation Zrotation
        JOINT LeftWrist
        {
         OFFSET 0.000000 -24.004700 0.000000
         CHANNELS 3 Yrotation Xrotation Zrotation
         End Site
         {
          OFFSET 0.000000 -17.728500 0.000000
         }
        }
       }
      }
     }
    }
   }
  }
 }
 JOINT RightHip
 {
  OFFSET -7.771700 -0.012900 -0.001300
  CHANNELS 3 Yrotation Xrotation Zrotation
  JOINT RightKnee
  {
   OFFSET 0.000000 -40.869800 0.001200
   CHANNELS 3 Yrotation Xrotation Zrotation
   JOINT RightAnkle
   {
    OFFSET 0.000000 -39.717900 0.002100
    CHANNELS 3 Yrotation Xrotation Zrotation
    JOINT RightToe
    {
     OFFSET 0.000000 -4.965400 11.033500
     CHANNELS 3 Yrotation Xrotation Zrotation
     End Site
     {
      OFFSET 0.000000 -1.423100 5.872300
     }
    }
   }
  }
 }
 JOINT LeftHip
 {
  OFFSET 7.771700 -0.012900 -0.001300
  CHANNELS 3 Yrotation Xrotation Zrotation
  JOINT LeftKnee
  {
   OFFSET 0.000000 -40.869800 0.001200
   CHANNELS 3 Yrotation Xrotation Zrotation
   JOINT LeftAnkle
   {
    OFFSET 0.000000 -39.717900 0.002100
    CHANNELS 3 Yrotation Xrotation Zrotation
    JOINT LeftToe
    {
     OFFSET 0.000000 -4.965400 11.033500
     CHANNELS 3 Yrotation Xrotation Zrotation
     End Site
     {
      OFFSET 0.000000 -1.423100 5.872300
     }
    }
   }
  }
 }
}
MOTION
Frames: 15
Frame Time: 0.008333
-146.095129 48.824336 18.863569 176.572772 -32.933709 -3.842110 0.283486 18.400193 1.982729 0.008415 2.093388 0.213710 0.016508 3.466464 0.347280 0.253721 16.006005 1.587062 3.805703 16.599290 -2.821822 8.034658 -4.718891 -6.535307 -1.701481 -3.292737 -3.157107 4.742100 -7.324607 -12.819243 -37.232161 -48.368642 89.235553 4.566898 8.397532 -15.170295 0.162127 -2.236969 2.885555 -6.069068 -2.328238 11.400965 82.800622 -77.172267 -119.102024 2.232022 10.466163 5.364507 -6.245634 -51.690941 -5.626991 -133.990138 81.818082 -121.593354 -30.428520 -2.722170 -4.559351 -0.086280 -12.250994 0.441757 -13.798985 -53.673986 18.472656 -73.885983 64.969038 -78.931544 30.637532 6.865686 16.185701 0.013358 -0.217276 0.040764
-146.102941 48.839827 18.882860 176.583049 -32.927349 -3.829182 0.268021 18.396011 1.982084 0.008440 2.093699 0.204511 0.014314 3.468414 0.346454 0.266547 16.029358 1.618571 3.795735 16.564235 -2.842234 8.058043 -4.791894 -6.493035 -1.703343 -3.300379 -3.170728 4.693339 -7.357744 -12.807757 -37.189856 -48.386990 89.202562 4.604404 8.386092 -15.147865 0.152559 -2.239162 2.875219 -6.085246 -2.372879 11.405283 82.802840 -77.171866 -119.090367 2.218118 10.488438 5.461516 -6.180309 -51.720896 -5.667626 -134.169518 81.875383 -121.782853 -30.457270 -2.661653 -4.609757 -0.124640 -12.258976 0.502066 -13.753030 -53.678226 18.472033 -73.698553 64.939311 -78.826199 30.704096 6.927093 16.306616 -0.032402 -0.258950 0.027896
-146.108806 48.856684 18.903820 176.610469 -32.923367 -3.861491 0.239748 18.394252 2.010704 0.009089 2.096612 0.205026 0.018909 3.469223 0.339644 0.269844 16.049494 1.638502 3.805833 16.524714 -2.832285 8.072972 -4.854252 -6.468965 -1.693346 -3.303733 -3.175846 4.656072 -7.381967 -12.791623 -37.204623 -48.394588 89.186175 4.637234 8.405210 -15.109608 0.151604 -2.244208 2.868905 -6.087683 -2.400067 11.400663 82.803905 -77.175125 -119.083867 2.229602 10.488855 5.470875 -6.150014 -51.743903 -5.665920 -134.259639 81.914162 -121.870098 -30.462409 -2.609696 -4.655460 -0.161993 -12.254386 0.555583 -13.775091 -53.673897 18.518292 -73.559604 64.894868 -78.738708 30.803629 7.033290 16.392127 -0.069563 -0.331161 -0.000371
-146.122357 48.873016 18.924920 176.621496 -32.922176 -3.859849 0.217780 18.397492 2.011848 0.003682 2.103980 0.224070 0.019021 3.479737 0.342726 0.269231 16.049495 1.626092 3.821999 16.489752 -2.820578 8.081443 -4.915137 -6.445099 -1.684377 -3.310012 -3.180058 4.638799 -7.389567 -12.757503 -37.265719 -48.343478 89.172381 4.652098 8.446738 -15.088662 0.155589 -2.258712 2.850461 -6.088912 -2.411491 11.408771 82.768562 -77.177109 -119.028124 2.213895 10.509618 5.477484 -6.053363 -51.767325 -5.719769 -134.259667 81.923367 -121.856063 -30.476814 -2.553888 -4.665181 -0.112478 -12.259546 0.567551 -13.765834 -53.675018 18.512097 -73.447043 64.862431 -78.667243 30.871561 7.094093 16.448731 -0.108370 -0.368799 -0.005782
-146.132766 48.891060 18.942603 176.627666 -32.949824 -3.889632 0.215259 18.426397 2.054069 0.007304 2.109232 0.226475 0.016930 3.485602 0.344232 0.259991 16.061263 1.630682 3.833015 16.453922 -2.808816 8.092344 -4.973712 -6.428075 -1.676525 -3.302237 -3.147647 4.635664 -7.404497 -12.744726 -37.252215 -48.343072 89.124087 4.679253 8.473761 -15.084794 0.153782 -2.251216 2.855012 -6.072302 -2.424846 11.414906 82.819782 -77.160417 -119.052032 2.203258 10.526382 5.466438 -6.006738 -51.754843 -5.724304 -134.247440 81.924137 -121.839909 -30.432829 -2.475374 -4.673350 -0.123353 -12.289822 0.583686 -13.752045 -53.652611 18.537797 -73.435422 64.825629 -78.654366 30.858141 7.140049 16.441975 -0.083847 -0.384329 0.011185
-146.150939 48.905545 18.961839 176.670870 -32.955673 -3.904985 0.175954 18.435380 2.063505 0.006222 2.112489 0.218169 0.012697 3.498137 0.356737 0.245078 16.073154 1.634884 3.847800 16.416152 -2.801603 8.099197 -5.034075 -6.412238 -1.670338 -3.309242 -3.145688 4.645972 -7.417850 -12.747451 -37.276979 -48.307446 89.128080 4.645818 8.486867 -15.110579 0.130602 -2.209586 2.894013 -6.025532 -2.487848 11.363316 82.842314 -77.156845 -119.064262 2.170592 10.591327 5.432052 -5.969742 -51.761395 -5.773711 -134.231593 81.925509 -121.830158 -30.400291 -2.416651 -4.655218 -0.106301 -12.305816 0.574358 -13.714859 -53.666259 18.495360 -73.373943 64.790243 -78.600925 30.885292 7.218755 16.486855 -0.092269 -0.422268 0.004864
-146.169521 48.918121 18.980699 176.715187 -32.956146 -3.924508 0.135413 18.445765 2.077504 0.005794 2.110668 0.208958 0.008049 3.515478 0.371384 0.235409 16.065878 1.622663 3.853351 16.394378 -2.774663 8.113067 -5.099909 -6.405234 -1.665708 -3.312961 -3.144971 4.655628 -7.411053 -12.690147 -37.252142 -48.336420 89.073215 4.579886 8.473454 -15.148463 0.114113 -2.188247 2.915633 -5.985015 -2.487484 11.347451 82.981802 -77.148218 -119.199817 2.152283 10.618537 5.393961 -5.918270 -51.768479 -5.835558 -134.238569 81.920763 -121.811902 -30.392144 -2.392890 -4.639967 -0.103071 -12.303908 0.567622 -13.673031 -53.685864 18.445780 -73.321272 64.773890 -78.540102 30.889262 7.285785 16.520176 -0.087419 -0.449422 0.004019
-146.186329 48.929134 18.998745 176.768241 -32.952529 -3.960786 0.092880 18.456900 2.107308 0.003168 2.114533 0.209839 0.001476 3.530473 0.375665 0.226429 16.052187 1.607791 3.856501 16.371727 -2.713282 8.132123 -5.161426 -6.436492 -1.659623 -3.317431 -3.143849 4.665686 -7.410834 -12.664875 -37.252208 -48.343332 89.054433 4.538269 8.451881 -15.189541 0.093718 -2.165773 2.940694 -5.928781 -2.417222 11.352701 83.407304 -77.128767 -119.612331 2.126368 10.632938 5.332534 -5.875328 -51.777342 -5.890515 -134.263884 81.913802 -121.802398 -30.382322 -2.365124 -4.621206 -0.111305 -12.307579 0.560283 -13.568869 -53.739017 18.349507 -73.390339 64.778166 -78.534473 30.852140 7.349871 16.523334 -0.053535 -0.478296 0.019652
-146.203468 48.939695 19.013778 176.802641 -32.959290 -3.982108 0.058633 18.516570 2.157541 0.006776 2.090272 0.186949 -0.005139 3.530706 0.369814 0.193738 16.091810 1.636957 3.872011 16.310611 -2.769516 8.143792 -5.238215 -6.403413 -1.627097 -3.350633 -3.166774 4.679702 -7.434621 -12.677376 -37.342541 -48.271240 89.147310 4.566685 8.472751 -15.264713 0.115432 -2.210378 2.901273 -5.905531 -2.376853 11.360196 83.565818 -77.124708 -119.740397 2.092215 10.638327 5.261896 -5.870032 -51.774633 -5.910056 -134.206433 81.908055 -121.758595 -30.345495 -2.334521 -4.571513 -0.129759 -12.306824 0.528930 -13.518138 -53.759349 18.291770 -73.384998 64.804061 -78.500230 30.829007 7.396916 16.536078 -0.050654 -0.503768 0.032036
-146.219331 48.948614 19.028026 176.828989 -32.960912 -4.002110 0.030329 18.546376 2.184352 0.005122 2.095695 0.188939 -0.000166 3.508327 0.350894 0.182135 16.106823 1.646832 3.873937 16.291803 -2.745310 8.162353 -5.312637 -6.408885 -1.619342 -3.340050 -3.146457 4.690295 -7.447910 -12.667419 -37.341005 -48.297637 89.131581 4.533218 8.434154 -15.307618 0.093712 -2.181299 2.939040 -5.864615 -2.370517 11.342317 83.621142 -77.157686 -119.753772 2.074827 10.605046 5.180749 -5.866283 -51.775938 -5.922914 -134.116862 81.902236 -121.678574 -30.313184 -2.310954 -4.525860 -0.140925 -12.301101 0.496133 -13.468756 -53.783618 18.242689 -73.381014 64.835199 -78.465097 30.804141 7.439197 16.545918 -0.033008 -0.518706 0.033083
-146.233881 48.954648 19.043610 176.829526 -32.943886 -4.010385 0.018180 18.554102 2.212053 0.009066 2.101178 0.189980 -0.004024 3.514541 0.353482 0.146063 16.157257 1.687364 3.884666 16.222445 -2.734282 8.184405 -5.384984 -6.468867 -1.579142 -3.382917 -3.184263 4.686169 -7.466287 -12.657324 -37.335894 -48.331849 89.123589 4.503995 8.393397 -15.342839 0.115520 -2.234865 2.894364 -5.844237 -2.343102 11.353536 83.788901 -77.163166 -119.901948 2.055713 10.608531 5.127641 -5.773385 -51.801788 -5.965421 -133.990016 81.916990 -121.543099 -30.322566 -2.238076 -4.479342 -0.152479 -12.308709 0.473872 -13.414703 -53.824193 18.210189 -73.379243 64.865494 -78.434243 30.802491 7.467254 16.542590 -0.014191 -0.523057 0.042876
-146.240485 48.961897 19.055460 176.828897 -32.947804 -4.057210 0.016941 18.579040 2.279726 -0.004695 2.129761 0.211351 -0.010410 3.528288 0.359009 0.138587 16.145564 1.674817 3.893635 16.178919 -2.764180 8.195143 -5.459813 -6.452052 -1.562355 -3.345431 -3.161950 4.685862 -7.519875 -12.677929 -37.352092 -48.361520 89.151871 4.485934 8.369553 -15.385651 0.131630 -2.265533 2.866997 -5.835688 -2.306476 11.385022 83.973331 -77.152327 -120.072711 2.032738 10.626821 5.081270 -5.799354 -51.794888 -5.902152 -133.921804 81.946887 -121.478207 -30.298789 -2.240501 -4.480738 -0.200995 -12.267027 0.477991 -13.415390 -53.831879 18.244913 -73.395618 64.883799 -78.424279 30.818931 7.544752 16.551015 -0.016302 -0.593838 0.048212
-146.251004 48.966906 19.066815 176.819461 -32.942323 -4.067931 0.011523 18.591213 2.314528 0.007177 2.118392 0.193954 -0.025824 3.553458 0.383604 0.142537 16.126736 1.652224 3.893803 16.170047 -2.751350 8.204777 -5.530340 -6.433178 -1.565425 -3.292288 -3.119490 4.661004 -7.516696 -12.631618 -37.383116 -48.396819 89.195043 4.514242 8.378414 -15.422820 0.113578 -2.213222 2.941805 -5.805925 -2.325915 11.364698 84.091873 -77.151829 -120.191580 2.021491 10.635295 5.048810 -5.802545 -51.801815 -5.876470 -133.893039 81.986984 -121.461792 -30.306626 -2.224492 -4.499321 -0.211699 -12.248480 0.493079 -13.386123 -53.852124 18.244828 -73.396357 64.895852 -78.410991 30.812249 7.564043 16.557135 0.006745 -0.595515 0.050929
-146.259860 48.970718 19.077090 176.813086 -32.934250 -4.082094 0.004024 18.598425 2.351493 0.005295 2.126200 0.195538 -0.033177 3.567187 0.397115 0.133751 16.137835 1.657550 3.898407 16.137472 -2.692874 8.221637 -5.590134 -6.501691 -1.548988 -3.288606 -3.126217 4.634065 -7.506313 -12.599357 -37.395945 -48.422546 89.222836 4.524575 8.371204 -15.440852 0.121398 -2.214923 2.953543 -5.782703 -2.330483 11.368538 84.135464 -77.162523 -120.249149 2.023647 10.635754 5.031267 -5.790099 -51.811751 -5.848064 -133.825815 82.015158 -121.398199 -30.334464 -2.213885 -4.517449 -0.178648 -12.225050 0.507982 -13.380191 -53.869087 18.262685 -73.380297 64.902339 -78.393172 30.813779 7.579786 16.572116 0.032445 -0.589891 0.042064
-146.266545 48.974925 19.083882 176.812590 -32.939961 -4.103883 0.002750 18.611019 2.383761 -0.002906 2.141170 0.211762 -0.037431 3.570272 0.400777 0.124556 16.158922 1.676838 3.902219 16.101273 -2.695880 8.232321 -5.646381 -6.508949 -1.534777 -3.284805 -3.135946 4.614119 -7.500941 -12.586280 -37.382878 -48.471606 89.223838 4.481916 8.346785 -15.441909 0.130485 -2.227968 2.949299 -5.767867 -2.325683 11.384450 84.186858 -77.157762 -120.314486 2.022730 10.655351 5.022619 -5.787900 -51.807638 -5.814306 -133.752033 82.021024 -121.321815 -30.357203 -2.213315 -4.524252 -0.158913 -12.205809 0.516987 -13.394266 -53.866159 18.293397 -73.375099 64.894073 -78.388545 30.816446 7.585374 16.577277 0.039428 -0.583239 0.041971
